HIERARCHY
ROOT Hips
{
    OFFSET 0.000000 0.000000 0.000000
    CHANNELS 6 Xposition Yposition Zposition Zrotation Xrotation Yrotation
    JOINT Spine
    {
        OFFSET 0.000002 7.164412 0.000002
        CHANNELS 3 Zrotation Xrotation Yrotation
        JOINT Spine1
        {
            OFFSET -0.000001 20.126801 -0.000002
            CHANNELS 3 Zrotation Xrotation Yrotation
            JOINT Neck
            {
                OFFSET 0.000000 21.094069 0.000000
                CHANNELS 3 Zrotation Xrotation Yrotation
                JOINT Head
                {
                    OFFSET -0.000001 12.838277 1.776080
                    CHANNELS 3 Zrotation Xrotation Yrotation
                    End Site
                    {
                        OFFSET 0.000000 17.760757 0.000000
                    }
                }
            }
            JOINT LeftShoulder
            {
                OFFSET 3.550527 15.465700 -0.908803
                CHANNELS 3 Zrotation Xrotation Yrotation
                JOINT LeftArm
                {
                    OFFSET 12.513296 -0.000006 -0.000002
                    CHANNELS 3 Zrotation Xrotation Yrotation
                    JOINT LeftForeArm
                    {
                        OFFSET 24.225996 -0.000003 0.000001
                        CHANNELS 3 Zrotation Xrotation Yrotation
                        JOINT LeftHand
                        {
                            OFFSET 20.711399 -0.000005 -0.000004
                            CHANNELS 3 Zrotation Xrotation Yrotation
                            JOINT LeftHandThumb1
                            {
                                OFFSET 2.121969 -2.411331 3.375859
                                CHANNELS 3 Zrotation Xrotation Yrotation
                                JOINT LeftHandThumb2
                                {
                                    OFFSET 2.803208 0.000003 0.000001
                                    CHANNELS 3 Zrotation Xrotation Yrotation
                                    JOINT LeftHandThumb3
                                    {
                                        OFFSET 2.395929 0.000004 -0.000003
                                        CHANNELS 3 Zrotation Xrotation Yrotation
                                        End Site
                                        {
                                            OFFSET 2.127676 0.000000 0.000000
                                        }
                                    }
                                }
                            }
                            JOINT LeftHandIndex1
                            {
                                OFFSET 8.680775 0.000005 3.375860
                                CHANNELS 3 Zrotation Xrotation Yrotation
                                JOINT LeftHandIndex2
                                {
                                    OFFSET 4.218178 -0.000000 -0.000000
                                    CHANNELS 3 Zrotation Xrotation Yrotation
                                    JOINT LeftHandIndex3
                                    {
                                        OFFSET 2.109086 -0.000004 0.000002
                                        CHANNELS 3 Zrotation Xrotation Yrotation
                                        End Site
                                        {
                                            OFFSET 1.872952 0.000000 0.000000
                                        }
                                    }
                                }
                            }
                            JOINT LeftHandMiddle1
                            {
                                OFFSET 8.680778 -0.000002 1.118860
                                CHANNELS 3 Zrotation Xrotation Yrotation
                                JOINT LeftHandMiddle2
                                {
                                    OFFSET 4.640003 -0.000004 -0.000001
                                    CHANNELS 3 Zrotation Xrotation Yrotation
                                    JOINT LeftHandMiddle3
                                    {
                                        OFFSET 2.530911 0.000002 -0.000001
                                        CHANNELS 3 Zrotation Xrotation Yrotation
                                        End Site
                                        {
                                            OFFSET 2.247544 0.000000 0.000000
                                        }
                                    }
                                }
                            }
                            JOINT LeftHandRing1
                            {
                                OFFSET 8.198517 0.000004 -1.118860
                                CHANNELS 3 Zrotation Xrotation Yrotation
                                JOINT LeftHandRing2
                                {
                                    OFFSET 4.218183 -0.000002 -0.000002
                                    CHANNELS 3 Zrotation Xrotation Yrotation
                                    JOINT LeftHandRing3
                                    {
                                        OFFSET 2.109094 0.000005 -0.000000
                                        CHANNELS 3 Zrotation Xrotation Yrotation
                                        End Site
                                        {
                                            OFFSET 1.872952 0.000000 0.000000
                                        }
                                    }
                                }
                            }
                            JOINT LeftHandPinky1
                            {
                                OFFSET 7.716254 0.000002 -3.375863
                                CHANNELS 3 Zrotation Xrotation Yrotation
                                JOINT LeftHandPinky2
                                {
                                    OFFSET 3.374536 0.000002 0.000001
                                    CHANNELS 3 Zrotation Xrotation Yrotation
                                    JOINT LeftHandPinky3
                                    {
                                        OFFSET 1.687274 -0.000002 -0.000004
                                        CHANNELS 3 Zrotation Xrotation Yrotation
                                        End Site
                                        {
                                            OFFSET 1.498360 0.000000 0.000000
                                        }
                                    }
                                }
                            }
                        }
                    }
                }
            }
            JOINT RightShoulder
            {
                OFFSET -3.550529 15.465699 -0.908801
                CHANNELS 3 Zrotation Xrotation Yrotation
                JOINT RightArm
                {
                    OFFSET -12.513299 -0.000001 -0.000000
                    CHANNELS 3 Zrotation Xrotation Yrotation
                    JOINT RightForeArm
                    {
                        OFFSET -24.226000 -0.000003 -0.000001
                        CHANNELS 3 Zrotation Xrotation Yrotation
                        JOINT RightHand
                        {
                            OFFSET -20.711397 -0.000003 -0.000002
                            CHANNELS 3 Zrotation Xrotation Yrotation
                            JOINT RightHandThumb1
                            {
                                OFFSET -2.121970 -2.411331 3.375859
                                CHANNELS 3 Zrotation Xrotation Yrotation
                                JOINT RightHandThumb2
                                {
                                    OFFSET -2.803209 -0.000004 0.000004
                                    CHANNELS 3 Zrotation Xrotation Yrotation
                                    JOINT RightHandThumb3
                                    {
                                        OFFSET -2.395928 0.000004 -0.000003
                                        CHANNELS 3 Zrotation Xrotation Yrotation
                                        End Site
                                        {
                                            OFFSET -2.127676 0.000000 0.000000
                                        }
                                    }
                                }
                            }
                            JOINT RightHandIndex1
                            {
                                OFFSET -8.680779 0.000001 3.375859
                                CHANNELS 3 Zrotation Xrotation Yrotation
                                JOINT RightHandIndex2
                                {
                                    OFFSET -4.218179 0.000003 -0.000001
                                    CHANNELS 3 Zrotation Xrotation Yrotation
                                    JOINT RightHandIndex3
                                    {
                                        OFFSET -2.109090 -0.000002 0.000000
                                        CHANNELS 3 Zrotation Xrotation Yrotation
                                        End Site
                                        {
                                            OFFSET -1.872952 0.000000 0.000000
                                        }
                                    }
                                }
                            }
                            JOINT RightHandMiddle1
                            {
                                OFFSET -8.680779 -0.000002 1.118859
                                CHANNELS 3 Zrotation Xrotation Yrotation
                                JOINT RightHandMiddle2
                                {
                                    OFFSET -4.639998 0.000003 -0.000001
                                    CHANNELS 3 Zrotation Xrotation Yrotation
                                    JOINT RightHandMiddle3
                                    {
                                        OFFSET -2.530910 -0.000000 -0.000000
                                        CHANNELS 3 Zrotation Xrotation Yrotation
                                        End Site
                                        {
                                            OFFSET -2.247544 0.000000 0.000000
                                        }
                                    }
                                }
                            }
                            JOINT RightHandRing1
                            {
                                OFFSET -8.198519 -0.000004 -1.118859
                                CHANNELS 3 Zrotation Xrotation Yrotation
                                JOINT RightHandRing2
                                {
                                    OFFSET -4.218180 -0.000005 0.000000
                                    CHANNELS 3 Zrotation Xrotation Yrotation
                                    JOINT RightHandRing3
                                    {
                                        OFFSET -2.109090 0.000002 0.000002
                                        CHANNELS 3 Zrotation Xrotation Yrotation
                                        End Site
                                        {
                                            OFFSET -1.872952 0.000000 0.000000
                                        }
                                    }
                                }
                            }
                            JOINT RightHandPinky1
                            {
                                OFFSET -7.716249 0.000004 -3.375858
                                CHANNELS 3 Zrotation Xrotation Yrotation
                                JOINT RightHandPinky2
                                {
                                    OFFSET -3.374539 0.000003 -0.000000
                                    CHANNELS 3 Zrotation Xrotation Yrotation
                                    JOINT RightHandPinky3
                                    {
                                        OFFSET -1.687270 -0.000004 -0.000001
                                        CHANNELS 3 Zrotation Xrotation Yrotation
                                        End Site
                                        {
                                            OFFSET -1.498360 0.000000 0.000000
                                        }
                                    }
                                }
                            }
                        }
                    }
                }
            }
        }
    }
    JOINT LeftUpLeg
    {
        OFFSET 8.880377 0.000003 0.000001
        CHANNELS 3 Zrotation Xrotation Yrotation
        JOINT LeftLeg
        {
            OFFSET -0.000000 -40.387413 0.000001
            CHANNELS 3 Zrotation Xrotation Yrotation
            JOINT LeftFoot
            {
                OFFSET -0.000000 -36.911304 0.000000
                CHANNELS 3 Zrotation Xrotation Yrotation
                JOINT LeftToeBase
                {
                    OFFSET 0.000003 -5.772240 13.320597
                    CHANNELS 3 Zrotation Xrotation Yrotation
                    End Site
                    {
                        OFFSET 0.000000 0.000000 3.552151
                    }
                }
            }
        }
    }
    JOINT RightUpLeg
    {
        OFFSET -8.880380 -0.000003 -0.000001
        CHANNELS 3 Zrotation Xrotation Yrotation
        JOINT RightLeg
        {
            OFFSET 0.000001 -40.387405 0.000000
            CHANNELS 3 Zrotation Xrotation Yrotation
            JOINT RightFoot
            {
                OFFSET -0.000001 -36.911304 -0.000001
                CHANNELS 3 Zrotation Xrotation Yrotation
                JOINT RightToeBase
                {
                    OFFSET 0.000000 -5.772241 13.320600
                    CHANNELS 3 Zrotation Xrotation Yrotation
                    End Site
                    {
                        OFFSET 0.000000 0.000000 3.552151
                    }
                }
            }
        }
    }
}
MOTION
Frames: 4
Frame Time: 0.013889
68.242813    79.584564    -12.615068    7.289462    2.129021    1.804748    -1.171828    -9.522029    -7.048870    9.255724    13.657310    -9.007279    7.103524    -16.363398    7.911714    4.068787    7.282257    5.585813    5.513026    -1.444608    -12.222997    -35.010433    37.270752    -60.090473    8.478319    -0.723716    -94.843407    13.946875    -11.320642    -19.719467    32.353840    33.229271    -46.486130    -12.993169    -0.467743    23.313049    -0.000000    0.000000    -0.000000    5.656597    17.917921    -2.847761    5.381409    0.000000    -0.000000    5.381407    0.000000    0.000001    5.264209    8.962667    -1.373548    5.199755    -0.000003    0.000000    5.199752    0.000007    -0.000000    5.172271    -8.963950    -3.283283    5.108930    -0.000003    0.000000    5.108928    0.000003    0.000001    5.274919    -17.928614    -6.554721    5.018101    0.000003    -0.000004    5.018099    0.000000    0.000002    5.345216    6.606242    8.859630    11.171715    51.939098    23.251356    0.315385    -0.116604    69.709038    -10.964174    23.781622    19.575546    -13.308914    48.791462    42.324268    24.115559    -5.207751    -22.760189    -0.000000    0.000000    -0.000000    12.056311    17.627758    28.860262    11.482285    0.000007    -0.000002    11.482285    0.000000    0.000002    2.912148    8.988566    15.825124    2.876351    0.000003    0.000001    2.876355    -0.000007    -0.000003    -1.444386    -8.997202    5.503648    -1.426613    0.000003    0.000004    -1.426613    0.000000    -0.000004    -6.022324    -17.906979    9.601253    -5.729576    -0.000004    0.000002    -5.729578    0.000003    0.000006    -9.180827    -31.549000    -4.435400    -0.000000    62.861073    0.000000    1.989976    2.651284    18.035942    0.000003    1.974627    0.000005    -13.947601    -17.595980    -12.350351    -0.000001    45.164734    0.000001    5.278815    -23.532701    3.349067    -0.000001    1.629850    0.000002    
68.366653    79.507599    -12.557838    7.060590    2.248340    1.897800    -1.188089    -9.627847    -7.068702    9.267905    13.669046    -9.028803    7.704298    -16.299973    7.951803    4.128772    7.203592    5.449951    5.569761    -1.104516    -12.042662    -35.568005    37.701420    -59.414108    3.219876    -0.240479    -94.266731    9.907353    -12.584080    -19.184580    33.538506    32.195618    -46.933613    -12.536433    -0.270907    23.315989    -0.000000    0.000000    -0.000000    4.816608    17.940464    -2.808747    4.581892    0.000007    -0.000000    4.581896    0.000003    0.000002    4.544636    8.972167    -1.371171    4.488909    -0.000003    0.000002    4.488908    0.000007    0.000001    4.497571    -8.972752    -3.018631    4.442418    0.000007    0.000001    4.442422    -0.000004    -0.000003    4.621194    -17.945194    -6.016382    4.395930    -0.000010    0.000002    4.395922    0.000010    -0.000000    5.519157    6.537807    8.794678    11.132616    51.845093    23.241413    0.131170    -0.048892    69.557312    -11.051076    23.784298    19.770275    -13.073070    48.888550    42.040524    24.103268    -5.202617    -22.761314    -0.000000    0.000000    -0.000000    12.648033    17.590408    28.949228    12.047528    -0.000000    -0.000002    12.047525    -0.000003    0.000002    3.198267    8.986224    15.914418    3.158976    -0.000000    -0.000000    3.158972    -0.000003    0.000003    -1.301319    -8.997711    5.526031    -1.285305    -0.000003    -0.000006    -1.285301    0.000003    0.000008    -6.022316    -17.906971    9.601268    -5.729575    -0.000000    0.000002    -5.729578    0.000000    -0.000004    -8.045967    -31.388233    -4.646084    -0.000000    62.391491    -0.000000    2.183621    1.916141    18.306780    -0.000001    1.931162    -0.000000    -13.707835    -17.768549    -12.082180    0.000000    45.354023    -0.000001    5.150183    -23.648058    2.936366    0.000000    1.579911    -0.000000    
68.540726    79.414764    -12.470256    6.743164    2.422098    2.029886    -1.214468    -9.812702    -7.090633    9.224298    13.667026    -9.034689    8.558094    -16.160429    8.047953    4.232926    7.155132    5.296809    5.565150    -0.691135    -11.885888    -36.308216    38.341179    -58.414967    -3.858973    0.209458    -93.102028    5.451537    -13.969733    -18.877478    35.020172    30.916132    -47.245445    -12.021797    -0.049096    23.317423    -0.000000    0.000000    -0.000000    3.025710    17.976477    -2.907266    2.877877    -0.000007    0.000000    2.877875    0.000003    -0.000002    3.169419    8.986458    -1.481895    3.130476    -0.000003    0.000001    3.130476    0.000003    -0.000002    3.297285    -8.985359    -2.710857    3.256777    -0.000000    -0.000001    3.256777    0.000003    -0.000000    3.556744    -17.967518    -5.354327    3.383079    0.000000    -0.000000    3.383075    0.000007    -0.000003    5.770177    6.526601    8.749446    11.277329    51.746212    23.084768    0.058957    -0.022352    69.237808    -11.140532    23.788376    19.836933    -12.894856    48.966637    41.840546    24.050814    -5.180694    -22.766058    -0.000000    0.000000    -0.000000    13.374070    17.542118    28.969547    12.741386    -0.000003    0.000000    12.741390    0.000003    -0.000005    3.549492    8.983021    15.979293    3.505907    -0.000000    -0.000003    3.505904    0.000000    0.000001    -1.125695    -8.998297    5.553492    -1.111836    0.000003    -0.000001    -1.111837    -0.000003    -0.000000    -6.022322    -17.906973    9.601261    -5.729579    0.000004    -0.000002    -5.729579    -0.000003    -0.000006    -6.435140    -31.167048    -4.941887    0.000000    61.732979    0.000000    2.370861    1.142731    18.497549    0.000003    1.939531    0.000003    -13.414735    -17.950899    -11.819786    0.000001    45.536205    -0.000002    5.008231    -23.802813    2.446388    0.000000    1.547168    -0.000001    
68.672874    79.354767    -12.386333    6.477768    2.562137    2.131612    -1.241519    -10.010753    -7.106463    9.210363    13.677271    -9.043465    9.160761    -15.989176    8.081591    4.290153    7.159269    5.162865    5.627766    -0.451086    -11.793659    -36.720539    38.933933    -57.700962    -9.356807    0.357427    -92.168114    3.102305    -14.996407    -18.873415    35.770954    30.295803    -47.245255    -11.864151    0.018855    23.317469    -0.000000    0.000000    -0.000000    1.431000    17.994701    -3.169823    1.360990    0.000000    -0.000000    1.360990    -0.000003    0.000000    1.916566    8.995049    -1.663593    1.892984    0.000010    0.000001    1.892987    0.000000    0.000001    2.185870    -8.993566    -2.539582    2.158984    0.000000    -0.000000    2.158983    -0.000003    -0.000002    2.549608    -17.983290    -4.975262    2.424983    -0.000003    -0.000002    2.424979    0.000003    -0.000000    5.918808    6.522192    8.720872    11.340509    51.681118    23.025330    0.005210    -0.002001    69.051277    -11.170531    23.805058    19.783100    -12.885212    48.969830    41.827316    23.974827    -5.148932    -22.772896    -0.000000    0.000000    -0.000000    13.877118    17.507111    28.965097    13.222365    0.000000    0.000001    13.222366    -0.000000    -0.000003    3.792955    8.980608    16.014793    3.746391    0.000003    0.000000    3.746391    -0.000003    0.000000    -1.003951    -8.998650    5.572534    -0.991592    0.000007    0.000005    -0.991594    -0.000000    0.000001    -6.022320    -17.906979    9.601259    -5.729579    -0.000000    0.000000    -5.729582    -0.000000    0.000001    -5.084376    -30.994228    -5.041703    0.000000    61.223175    0.000000    2.513241    0.672319    18.564280    -0.000000    1.948731    0.000003    -13.200807    -18.046373    -11.698802    -0.000002    45.608528    0.000003    4.970771    -23.894873    2.235452    -0.000000    1.560991    0.000001    
